# xmcd CD database file
#
# Track frame offsets:
#	150
#	8127
#	15305
#	27645
#	35817
#	41047
#	51122
#	63392
#	76492
#	90277
#
# Disc length: 1313 seconds
#
# Revision: 2
# Processed by: cddbd v1.5.2PL0 Copyright (c) Steve Scherf et al.
# Submitted via: CDex 1.70beta2
#
DISCID=75051f0a
DTITLE=Various Artist - Só o melhor do Sertanejo
DYEAR=1997
DGENRE=Country
TTITLE0=Fio de Cabelo I - Pense em mim - Entre Tapas e Beijos
TTITLE1=Vira Virou - Pagina Virada - Desculpe, mas eu vou chorar
TTITLE2=Nem Dormindo Consigo te Esquecer - Fio de Cabelo II - Nascemos para Cantar
TTITLE3=Passa lá - Bobeou.. A gente pimba
TTITLE4=Panela Velha - Secretária de Sucesso - O palco caiu
TTITLE5=Sonhar Contigo - A namorada que sonhei - O relógio
TTITLE6=Fogão de Lenha - Chora Peito - La Paloma
TTITLE7=João de Barro - Cabocla Tereza - Chico Mineiro
TTITLE8=Falando as Paredes - Te amo Te amo Te amo - Amante Anônimo
TTITLE9=Cana Verde - Pára Pedro - Moreninha Linda
EXTD=YEAR: 1997
EXTT0=
EXTT1=
EXTT2=
EXTT3=
EXTT4=
EXTT5=
EXTT6=
EXTT7=
EXTT8=
EXTT9=
PLAYORDER=
